<?xml version="1.0" encoding="UTF-8" standalone="no"?>
<svg width="301px" height="276px" viewBox="0 0 301 276" version="1.1" xmlns="http://www.w3.org/2000/svg" xmlns:xlink="http://www.w3.org/1999/xlink" xmlns:sketch="http://www.bohemiancoding.com/sketch/ns">
    <!-- Generator: Sketch 3.3.2 (12043) - http://www.bohemiancoding.com/sketch -->
    <title>Shape</title>
    <desc>Created with Sketch.</desc>
    <defs></defs>
    <g id="Page-1" stroke="none" stroke-width="1" fill="none" fill-rule="evenodd" sketch:type="MSPage">
        <path d="M51.4718494,160.757455 L30.4520161,160.757455 C14.7498494,160.757455 0.000849388881,153.205091 0.000849388881,135.766909 C0.000849388881,123.070909 -0.450650611,80.3912727 19.4655161,80.3912727 C22.7514327,80.3912727 39.0555994,93.7145455 60.2510161,93.7145455 C67.4750161,93.7145455 74.3729327,92.4349091 81.1203494,90.0763636 C80.6437661,93.564 80.3427661,96.9763636 80.3427661,100.464 C80.3427661,114.715636 84.9079327,128.892 93.0600161,140.659636 C76.7307661,141.111273 61.9817661,148.161818 51.4718494,160.757455 L51.4718494,160.757455 Z M60.2510161,80.3912727 C38.1275161,80.3912727 20.0675161,62.3007273 20.0675161,40.1956364 C20.0675161,18.0403636 38.1275161,0 60.2510161,0 C82.3745161,0 100.434516,18.0403636 100.434516,40.1956364 C100.434516,62.3007273 82.3745161,80.3912727 60.2510161,80.3912727 L60.2510161,80.3912727 Z M219.204099,281.319273 L82.0735161,281.319273 C56.9400161,281.319273 40.1592661,266.089091 40.1592661,240.646909 C40.1592661,205.168364 48.4618494,150.721091 94.4646827,150.721091 C99.8074327,150.721091 119.247016,172.525091 150.626266,172.525091 C182.005516,172.525091 201.445099,150.721091 206.787849,150.721091 C252.790683,150.721091 261.093266,205.168364 261.093266,240.646909 C261.118349,266.064 244.337599,281.319273 219.204099,281.319273 L219.204099,281.319273 Z M150.651349,160.757455 C117.390849,160.757455 90.4011827,133.759636 90.4011827,100.489091 C90.4011827,67.2185455 117.390849,40.2207273 150.651349,40.2207273 C183.911849,40.2207273 210.901516,67.2185455 210.901516,100.489091 C210.901516,133.759636 183.911849,160.757455 150.651349,160.757455 L150.651349,160.757455 Z M241.026599,80.3912727 C218.903099,80.3912727 200.843099,62.3007273 200.843099,40.1956364 C200.843099,18.0403636 218.903099,0 241.026599,0 C263.150099,0 281.210099,18.0403636 281.210099,40.1956364 C281.210099,62.3007273 263.150099,80.3912727 241.026599,80.3912727 L241.026599,80.3912727 Z M270.850683,160.757455 L249.830849,160.757455 C239.295849,148.161818 224.546849,141.111273 208.242683,140.659636 C216.394766,128.892 220.959933,114.740727 220.959933,100.464 C220.959933,96.9763636 220.633849,93.564 220.182349,90.0763636 C226.929766,92.4349091 233.827683,93.7145455 241.051683,93.7145455 C262.247099,93.7145455 278.551266,80.3912727 281.837183,80.3912727 C301.778433,80.3912727 301.301849,123.070909 301.301849,135.766909 C301.276766,153.205091 286.552849,160.757455 270.850683,160.757455 L270.850683,160.757455 Z" id="Shape" fill="#404F7F" sketch:type="MSShapeGroup"></path>
    </g>
</svg>